<svg xmlns="http://www.w3.org/2000/svg" xmlns:xlink="http://www.w3.org/1999/xlink" xmlns:lucid="lucid" width="903" height="96"><g transform="translate(-323 -760)" lucid:page-tab-id="Z29Dpy1Xj1uz"><path d="M327.14 692.86h966.62v250H327.14z" stroke="#000" stroke-opacity="0" fill="#fff" fill-opacity="0"/><use xlink:href="#a" transform="matrix(1,0,0,1,332.1428571428571,697.8571428571429) translate(0 133.83333333333334)"/><use xlink:href="#b" transform="matrix(1,0,0,1,332.1428571428571,697.8571428571429) translate(384.2592592592593 133.83333333333334)"/><use xlink:href="#c" transform="matrix(1,0,0,1,332.1428571428571,697.8571428571429) translate(605.925925925926 133.83333333333334)"/><path d="M329.66 690.86h966.6v250h-966.6z" stroke="#000" stroke-opacity="0" fill="#fff" fill-opacity="0"/><g><use xlink:href="#d" transform="matrix(1,0,0,1,334.6601705456386,695.8571428571429) translate(0 133.83333333333334)"/><use xlink:href="#e" transform="matrix(1,0,0,1,334.6601705456386,695.8571428571429) translate(384.2592592592593 133.83333333333334)"/><use xlink:href="#f" transform="matrix(1,0,0,1,334.6601705456386,695.8571428571429) translate(605.925925925926 133.83333333333334)"/></g><defs><path d="M67-125c0 53 21 87 73 88 37 1 54-22 65-47l45 17C233-25 199 4 140 4 58 4 20-42 15-125 8-235 124-281 211-232c18 10 29 29 36 50l-46 12c-8-25-30-41-62-41-52 0-71 34-72 86" id="g"/><path d="M110-194c64 0 96 36 96 99 0 64-35 99-97 99-61 0-95-36-95-99 0-62 34-99 96-99zm-1 164c35 0 45-28 45-65 0-40-10-65-43-65-34 0-45 26-45 65 0 36 10 65 43 65" id="h"/><path d="M220-157c-53 9-28 100-34 157h-49v-107c1-27-5-49-29-50C55-147 81-57 75 0H25l-1-190h47c2 12-1 28 3 38 10-53 101-56 108 0 13-22 24-43 59-42 82 1 51 116 57 194h-49v-107c-1-25-5-48-29-50" id="i"/><path d="M85 4C-2 5 27-109 22-190h50c7 57-23 150 33 157 60-5 35-97 40-157h50l1 190h-47c-2-12 1-28-3-38-12 25-28 42-61 42" id="j"/><path d="M135-194c87-1 58 113 63 194h-50c-7-57 23-157-34-157-59 0-34 97-39 157H25l-1-190h47c2 12-1 28 3 38 12-26 28-41 61-42" id="k"/><path d="M25-224v-37h50v37H25zM25 0v-190h50V0H25" id="l"/><path d="M115-3C79 11 28 4 28-45v-112H4v-33h27l15-45h31v45h36v33H77v99c-1 23 16 31 38 25v30" id="m"/><path d="M123 10C108 53 80 86 19 72V37c35 8 53-11 59-39L3-190h52l48 148c12-52 28-100 44-148h51" id="n"/><g id="a"><use transform="matrix(0.1851851851851852,0,0,0.1851851851851852,0,0)" xlink:href="#g"/><use transform="matrix(0.1851851851851852,0,0,0.1851851851851852,47.96296296296297,0)" xlink:href="#h"/><use transform="matrix(0.1851851851851852,0,0,0.1851851851851852,88.51851851851853,0)" xlink:href="#i"/><use transform="matrix(0.1851851851851852,0,0,0.1851851851851852,147.7777777777778,0)" xlink:href="#i"/><use transform="matrix(0.1851851851851852,0,0,0.1851851851851852,207.03703703703707,0)" xlink:href="#j"/><use transform="matrix(0.1851851851851852,0,0,0.1851851851851852,247.5925925925926,0)" xlink:href="#k"/><use transform="matrix(0.1851851851851852,0,0,0.1851851851851852,288.14814814814815,0)" xlink:href="#l"/><use transform="matrix(0.1851851851851852,0,0,0.1851851851851852,306.6666666666667,0)" xlink:href="#m"/><use transform="matrix(0.1851851851851852,0,0,0.1851851851851852,328.7037037037037,0)" xlink:href="#n"/></g><path d="M186 0v-106H76V0H24v-248h52v99h110v-99h50V0h-50" id="o"/><path d="M185-48c-13 30-37 53-82 52C43 2 14-33 14-96s30-98 90-98c62 0 83 45 84 108H66c0 31 8 55 39 56 18 0 30-7 34-22zm-45-69c5-46-57-63-70-21-2 6-4 13-4 21h74" id="p"/><path d="M133-34C117-15 103 5 69 4 32 3 11-16 11-54c-1-60 55-63 116-61 1-26-3-47-28-47-18 1-26 9-28 27l-52-2c7-38 36-58 82-57s74 22 75 68l1 82c-1 14 12 18 25 15v27c-30 8-71 5-69-32zm-48 3c29 0 43-24 42-57-32 0-66-3-65 30 0 17 8 27 23 27" id="q"/><path d="M25 0v-261h50V0H25" id="r"/><path d="M114-157C55-157 80-60 75 0H25v-261h50l-1 109c12-26 28-41 61-42 86-1 58 113 63 194h-50c-7-57 23-157-34-157" id="s"/><g id="b"><use transform="matrix(0.1851851851851852,0,0,0.1851851851851852,0,0)" xlink:href="#o"/><use transform="matrix(0.1851851851851852,0,0,0.1851851851851852,47.96296296296297,0)" xlink:href="#p"/><use transform="matrix(0.1851851851851852,0,0,0.1851851851851852,85,0)" xlink:href="#q"/><use transform="matrix(0.1851851851851852,0,0,0.1851851851851852,122.03703703703705,0)" xlink:href="#r"/><use transform="matrix(0.1851851851851852,0,0,0.1851851851851852,140.55555555555554,0)" xlink:href="#m"/><use transform="matrix(0.1851851851851852,0,0,0.1851851851851852,162.59259259259258,0)" xlink:href="#s"/></g><path d="M24 0v-248h195v40H76v63h132v40H76v65h150V0H24" id="t"/><path d="M144 0l-44-69L55 0H2l70-98-66-92h53l41 62 40-62h54l-67 91 71 99h-54" id="u"/><path d="M135-194c53 0 70 44 70 98 0 56-19 98-73 100-31 1-45-17-59-34 3 33 2 69 2 105H25l-1-265h48c2 10 0 23 3 31 11-24 29-35 60-35zM114-30c33 0 39-31 40-66 0-38-9-64-40-64-56 0-55 130 0 130" id="v"/><path d="M135-150c-39-12-60 13-60 57V0H25l-1-190h47c2 13-1 29 3 40 6-28 27-53 61-41v41" id="w"/><g id="c"><use transform="matrix(0.1851851851851852,0,0,0.1851851851851852,0,0)" xlink:href="#t"/><use transform="matrix(0.1851851851851852,0,0,0.1851851851851852,44.44444444444445,0)" xlink:href="#u"/><use transform="matrix(0.1851851851851852,0,0,0.1851851851851852,81.4814814814815,0)" xlink:href="#v"/><use transform="matrix(0.1851851851851852,0,0,0.1851851851851852,122.03703703703705,0)" xlink:href="#r"/><use transform="matrix(0.1851851851851852,0,0,0.1851851851851852,140.55555555555557,0)" xlink:href="#h"/><use transform="matrix(0.1851851851851852,0,0,0.1851851851851852,181.11111111111114,0)" xlink:href="#w"/><use transform="matrix(0.1851851851851852,0,0,0.1851851851851852,207.03703703703707,0)" xlink:href="#p"/><use transform="matrix(0.1851851851851852,0,0,0.1851851851851852,244.0740740740741,0)" xlink:href="#w"/></g><path fill="orange" d="M67-125c0 53 21 87 73 88 37 1 54-22 65-47l45 17C233-25 199 4 140 4 58 4 20-42 15-125 8-235 124-281 211-232c18 10 29 29 36 50l-46 12c-8-25-30-41-62-41-52 0-71 34-72 86" id="x"/><path fill="orange" d="M110-194c64 0 96 36 96 99 0 64-35 99-97 99-61 0-95-36-95-99 0-62 34-99 96-99zm-1 164c35 0 45-28 45-65 0-40-10-65-43-65-34 0-45 26-45 65 0 36 10 65 43 65" id="y"/><path fill="orange" d="M220-157c-53 9-28 100-34 157h-49v-107c1-27-5-49-29-50C55-147 81-57 75 0H25l-1-190h47c2 12-1 28 3 38 10-53 101-56 108 0 13-22 24-43 59-42 82 1 51 116 57 194h-49v-107c-1-25-5-48-29-50" id="z"/><path fill="#1891ff" d="M85 4C-2 5 27-109 22-190h50c7 57-23 150 33 157 60-5 35-97 40-157h50l1 190h-47c-2-12 1-28-3-38-12 25-28 42-61 42" id="A"/><path fill="#1891ff" d="M135-194c87-1 58 113 63 194h-50c-7-57 23-157-34-157-59 0-34 97-39 157H25l-1-190h47c2 12-1 28 3 38 12-26 28-41 61-42" id="B"/><path fill="#1891ff" d="M25-224v-37h50v37H25zM25 0v-190h50V0H25" id="C"/><path fill="#1891ff" d="M115-3C79 11 28 4 28-45v-112H4v-33h27l15-45h31v45h36v33H77v99c-1 23 16 31 38 25v30" id="D"/><path fill="#1891ff" d="M123 10C108 53 80 86 19 72V37c35 8 53-11 59-39L3-190h52l48 148c12-52 28-100 44-148h51" id="E"/><g id="d"><use transform="matrix(0.1851851851851852,0,0,0.1851851851851852,0,0)" xlink:href="#x"/><use transform="matrix(0.1851851851851852,0,0,0.1851851851851852,47.96296296296297,0)" xlink:href="#y"/><use transform="matrix(0.1851851851851852,0,0,0.1851851851851852,88.51851851851853,0)" xlink:href="#z"/><use transform="matrix(0.1851851851851852,0,0,0.1851851851851852,147.7777777777778,0)" xlink:href="#z"/><use transform="matrix(0.1851851851851852,0,0,0.1851851851851852,207.03703703703707,0)" xlink:href="#A"/><use transform="matrix(0.1851851851851852,0,0,0.1851851851851852,247.5925925925926,0)" xlink:href="#B"/><use transform="matrix(0.1851851851851852,0,0,0.1851851851851852,288.14814814814815,0)" xlink:href="#C"/><use transform="matrix(0.1851851851851852,0,0,0.1851851851851852,306.6666666666667,0)" xlink:href="#D"/><use transform="matrix(0.1851851851851852,0,0,0.1851851851851852,328.7037037037037,0)" xlink:href="#E"/></g><path fill="#ea5aea" d="M186 0v-106H76V0H24v-248h52v99h110v-99h50V0h-50" id="F"/><path fill="#ea5aea" d="M185-48c-13 30-37 53-82 52C43 2 14-33 14-96s30-98 90-98c62 0 83 45 84 108H66c0 31 8 55 39 56 18 0 30-7 34-22zm-45-69c5-46-57-63-70-21-2 6-4 13-4 21h74" id="G"/><path fill="#ea5aea" d="M133-34C117-15 103 5 69 4 32 3 11-16 11-54c-1-60 55-63 116-61 1-26-3-47-28-47-18 1-26 9-28 27l-52-2c7-38 36-58 82-57s74 22 75 68l1 82c-1 14 12 18 25 15v27c-30 8-71 5-69-32zm-48 3c29 0 43-24 42-57-32 0-66-3-65 30 0 17 8 27 23 27" id="H"/><path fill="#ea5aea" d="M25 0v-261h50V0H25" id="I"/><path fill="#ea5aea" d="M115-3C79 11 28 4 28-45v-112H4v-33h27l15-45h31v45h36v33H77v99c-1 23 16 31 38 25v30" id="J"/><path fill="#ea5aea" d="M114-157C55-157 80-60 75 0H25v-261h50l-1 109c12-26 28-41 61-42 86-1 58 113 63 194h-50c-7-57 23-157-34-157" id="K"/><g id="e"><use transform="matrix(0.1851851851851852,0,0,0.1851851851851852,0,0)" xlink:href="#F"/><use transform="matrix(0.1851851851851852,0,0,0.1851851851851852,47.96296296296297,0)" xlink:href="#G"/><use transform="matrix(0.1851851851851852,0,0,0.1851851851851852,85,0)" xlink:href="#H"/><use transform="matrix(0.1851851851851852,0,0,0.1851851851851852,122.03703703703705,0)" xlink:href="#I"/><use transform="matrix(0.1851851851851852,0,0,0.1851851851851852,140.55555555555554,0)" xlink:href="#J"/><use transform="matrix(0.1851851851851852,0,0,0.1851851851851852,162.59259259259258,0)" xlink:href="#K"/></g><path fill="#2abd2a" d="M24 0v-248h195v40H76v63h132v40H76v65h150V0H24" id="L"/><path fill="#2abd2a" d="M144 0l-44-69L55 0H2l70-98-66-92h53l41 62 40-62h54l-67 91 71 99h-54" id="M"/><path fill="#2abd2a" d="M135-194c53 0 70 44 70 98 0 56-19 98-73 100-31 1-45-17-59-34 3 33 2 69 2 105H25l-1-265h48c2 10 0 23 3 31 11-24 29-35 60-35zM114-30c33 0 39-31 40-66 0-38-9-64-40-64-56 0-55 130 0 130" id="N"/><path fill="#2abd2a" d="M25 0v-261h50V0H25" id="O"/><path fill="#2abd2a" d="M110-194c64 0 96 36 96 99 0 64-35 99-97 99-61 0-95-36-95-99 0-62 34-99 96-99zm-1 164c35 0 45-28 45-65 0-40-10-65-43-65-34 0-45 26-45 65 0 36 10 65 43 65" id="P"/><path fill="#2abd2a" d="M135-150c-39-12-60 13-60 57V0H25l-1-190h47c2 13-1 29 3 40 6-28 27-53 61-41v41" id="Q"/><path fill="#2abd2a" d="M185-48c-13 30-37 53-82 52C43 2 14-33 14-96s30-98 90-98c62 0 83 45 84 108H66c0 31 8 55 39 56 18 0 30-7 34-22zm-45-69c5-46-57-63-70-21-2 6-4 13-4 21h74" id="R"/><g id="f"><use transform="matrix(0.1851851851851852,0,0,0.1851851851851852,0,0)" xlink:href="#L"/><use transform="matrix(0.1851851851851852,0,0,0.1851851851851852,44.44444444444445,0)" xlink:href="#M"/><use transform="matrix(0.1851851851851852,0,0,0.1851851851851852,81.4814814814815,0)" xlink:href="#N"/><use transform="matrix(0.1851851851851852,0,0,0.1851851851851852,122.03703703703705,0)" xlink:href="#O"/><use transform="matrix(0.1851851851851852,0,0,0.1851851851851852,140.55555555555557,0)" xlink:href="#P"/><use transform="matrix(0.1851851851851852,0,0,0.1851851851851852,181.11111111111114,0)" xlink:href="#Q"/><use transform="matrix(0.1851851851851852,0,0,0.1851851851851852,207.03703703703707,0)" xlink:href="#R"/><use transform="matrix(0.1851851851851852,0,0,0.1851851851851852,244.0740740740741,0)" xlink:href="#Q"/></g></defs></g></svg>